ffmpeg started on 2016-11-26 at 15:53:51
Report written to "Output/NVENCh264/results/ffmpeg/sintelll6000k.log"
Command line:
Tools/ffmpeg/ffmpeg -benchmark -y -i Input/y4m/sintel.y4m -c:v h264_nvenc -preset ll -b:v 6000k -an Output/NVENCh264/encoded/sintelll6000k.mkv
ffmpeg version N-82227-gdb23fde Copyright (c) 2000-2016 the FFmpeg developers
  built with gcc 5.4.0 (Ubuntu 5.4.0-6ubuntu1~16.04.2) 20160609
  configuration: --prefix=/home/jaroslav/ffmpeg_build --pkg-config-flags=--static --extra-cflags=-I/home/jaroslav/ffmpeg_build/include --extra-ldflags=-L/home/jaroslav/ffmpeg_build/lib --bindir=/home/jaroslav/bin --enable-gpl --enable-libass --enable-libfdk-aac --enable-libfreetype --enable-libmp3lame --enable-libopus --enable-libtheora --enable-libvorbis --enable-libvpx --enable-libx264 --enable-libx265 --enable-nvenc --enable-libmfx --enable-libxvid --enable-libgsm --enable-libopencore-amrnb --enable-version3 --enable-nonfree
  libavutil      55. 35.100 / 55. 35.100
  libavcodec     57. 66.101 / 57. 66.101
  libavformat    57. 57.100 / 57. 57.100
  libavdevice    57.  2.100 / 57.  2.100
  libavfilter     6. 66.100 /  6. 66.100
  libswscale      4.  3.100 /  4.  3.100
  libswresample   2.  4.100 /  2.  4.100
  libpostproc    54.  2.100 / 54.  2.100
Input #0, yuv4mpegpipe, from 'Input/y4m/sintel.y4m':
  Duration: 00:00:20.83, start: 0.000000, bitrate: 2057307 kb/s
    Stream #0:0: Video: rawvideo (I420 / 0x30323449), yuv420p(progressive), 4096x1744, SAR 1:1 DAR 256:109, 24 fps, 24 tbr, 24 tbn, 24 tbc
[h264_nvenc @ 0x2e0f1c0] The variable bitrate rate-control requires the 'qmin' and/or 'qmax' option set.
Output #0, matroska, to 'Output/NVENCh264/encoded/sintelll6000k.mkv':
  Metadata:
    encoder         : Lavf57.57.100
    Stream #0:0: Video: h264 (h264_nvenc) (Main) (H264 / 0x34363248), yuv420p, 4096x1744 [SAR 1:1 DAR 256:109], q=-1--1, 6000 kb/s, 24 fps, 1k tbn, 24 tbc
    Metadata:
      encoder         : Lavc57.66.101 h264_nvenc
    Side data:
      cpb: bitrate max/min/avg: 0/0/6000000 buffer size: 12000000 vbv_delay: -1
Stream mapping:
  Stream #0:0 -> #0:0 (rawvideo (native) -> h264 (h264_nvenc))
Press [q] to stop, [?] for help
frame=    3 fps=0.0 q=0.0 size=       0kB time=00:00:00.00 bitrate=N/A speed=   0x    frame=   24 fps= 21 q=0.0 size=       0kB time=00:00:00.00 bitrate=N/A speed=   0x    frame=   37 fps= 21 q=38.0 size=       1kB time=00:00:00.25 bitrate=  23.8kbits/s speed=0.142x    frame=   57 fps= 25 q=40.0 size=       1kB time=00:00:01.08 bitrate=   5.5kbits/s speed=0.477x    frame=   78 fps= 28 q=38.0 size=       1kB time=00:00:01.95 bitrate=   3.1kbits/s speed=0.704x    frame=   99 fps= 30 q=39.0 size=       1kB time=00:00:02.83 bitrate=   2.1kbits/s speed=0.86x    frame=  120 fps= 32 q=35.0 size=       1kB time=00:00:03.70 bitrate=   1.6kbits/s speed=0.974x    frame=  141 fps= 33 q=34.0 size=       1kB time=00:00:04.58 bitrate=   1.3kbits/s speed=1.06x    frame=  162 fps= 33 q=38.0 size=    3371kB time=00:00:05.45 bitrate=5058.3kbits/s speed=1.13x    frame=  178 fps= 29 q=37.0 size=    3371kB time=00:00:06.12 bitrate=4507.5kbits/s speed=1.01x    frame=  179 fps= 19 q=37.0 size=    3371kB time=00:00:06.16 bitrate=4476.8kbits/s speed=0.656x    frame=  180 fps= 18 q=37.0 size=    3371kB time=00:00:06.20 bitrate=4447.3kbits/s speed=0.615x    frame=  201 fps= 19 q=35.0 size=    3371kB time=00:00:07.08 bitrate=3897.9kbits/s speed=0.667x    frame=  222 fps= 20 q=34.0 size=    3371kB time=00:00:07.95 bitrate=3469.4kbits/s speed=0.716x    frame=  243 fps= 21 q=37.0 size=    3371kB time=00:00:08.83 bitrate=3125.8kbits/s speed=0.759x    frame=  264 fps= 22 q=35.0 size=    3371kB time=00:00:09.70 bitrate=2844.1kbits/s speed=0.799x    frame=  285 fps= 22 q=33.0 size=    7071kB time=00:00:10.58 bitrate=5472.6kbits/s speed=0.835x    frame=  306 fps= 23 q=33.0 size=    7944kB time=00:00:11.45 bitrate=5678.8kbits/s speed=0.868x    frame=  320 fps= 23 q=34.0 size=    7944kB time=00:00:12.04 bitrate=5403.4kbits/s speed=0.867x    frame=  341 fps= 24 q=28.0 size=    7944kB time=00:00:12.91 bitrate=5037.4kbits/s speed=0.897x    frame=  362 fps= 24 q=29.0 size=    7944kB time=00:00:13.79 bitrate=4717.9kbits/s speed=0.925x    frame=  383 fps= 25 q=28.0 size=    7944kB time=00:00:14.66 bitrate=4436.4kbits/s speed=0.951x    frame=  404 fps= 25 q=30.0 size=    7944kB time=00:00:15.54 bitrate=4186.7kbits/s speed=0.975x    frame=  425 fps= 26 q=31.0 size=   11689kB time=00:00:16.41 bitrate=5832.6kbits/s speed=0.997x    frame=  446 fps= 26 q=32.0 size=   11689kB time=00:00:17.29 bitrate=5537.5kbits/s speed=1.02x    frame=  467 fps= 27 q=33.0 size=   12666kB time=00:00:18.16 bitrate=5710.9kbits/s speed=1.04x    frame=  483 fps= 27 q=32.0 size=   12666kB time=00:00:18.83 bitrate=5509.0kbits/s speed=1.04x    frame=  498 fps= 27 q=33.0 size=   12666kB time=00:00:19.45 bitrate=5332.0kbits/s speed=1.05x    frame=  500 fps= 27 q=32.0 Lsize=   15180kB time=00:00:20.79 bitrate=5980.4kbits/s speed=1.11x    
video:15175kB audio:0kB subtitle:0kB other streams:0kB global headers:0kB muxing overhead: 0.031894%
bench: utime=0.972s
bench: maxrss=1192476kB
